<svg xmlns="http://www.w3.org/2000/svg" xmlns:xlink="http://www.w3.org/1999/xlink" width="913.557" height="848.271" viewBox="0 0 913.557 848.271">
  <defs>
    <clipPath id="clip-path">
      <rect id="Rectangle_23" data-name="Rectangle 23" width="913.557" height="848.271" fill="rgba(206,208,214,0.1)"/>
    </clipPath>
  </defs>
  <g id="Group_30" data-name="Group 30" transform="translate(-15 -130.865)">
    <g id="Group_9" data-name="Group 9" transform="translate(15 130.865)" clip-path="url(#clip-path)">
      <path id="Path_6" data-name="Path 6" d="M886.823,503.949s-20.227-19.565-24.141-43.041-3.912-54.777-35.215-54.777-58.691,19.562-58.691,19.562-13.7,1.957-13.7,13.7a29.938,29.938,0,0,0,7.826,19.564l3.914,7.824h11.738s11.738,19.564,19.562,19.564,23.477-7.824,23.477-7.824,0,15.65,7.826,15.65,7.826,11.738,7.826,11.738-11.74,19.562-15.652,39.127a224.232,224.232,0,0,0-3.482,30.01,6.056,6.056,0,0,1-10.016,4.226c-13.3-11.541-37.955-30.324-56.932-30.324H720.063a.327.327,0,0,1-.274-.156c-1.213-3.091-21.013-50.709-66.439-50.709a400.082,400.082,0,0,0-43.041,11.738h-15.65s-7.826-39.127-58.691-46.953v-31.3l26.449,15.418a14.246,14.246,0,0,0,21.443-11.738l-.744-21.677a4.829,4.829,0,0,1,5.281-4.97l22.147,2.036a4.869,4.869,0,0,0,5.555-6.067c-2.306-8.686-5.79-22.575-5.79-27.779,0-7.826,0-27.391,3.914-31.3,2.583-2.582,6.806-10.174,9.43-15.1a20.049,20.049,0,0,0,2.306-9.351V309.917A26.327,26.327,0,0,0,613.245,287.3c3.717,1.055,7.433,2.152,11.15,3.247.862.274,1.722.665,2.582.979h1.878a25.946,25.946,0,0,0,3.8-2.582c2.935-2.857,2.466-6.455-.9-8.647-9.86-6.3-11.582-12.873-5.713-22.733,3.405-5.713,3.8-11.073-.391-16.512-8.726-11.229-7.668-23.086-1.448-34.785,6.1-11.5,15.064-20.776,25.431-28.446,12.875-9.546,22.226-21.4,26.921-36.779,2.269-7.512,2.269-14.946-1.683-21.833-4.616-8.061-4.93-16.238-2.034-24.846,1.055-3.091,1.878-6.262,2.738-9.43,3.484-12.756.43-23.751-8.921-33.1C654.759,39.9,640.085,33.166,623.925,29.763c-19.211-3.991-38.736-6.692-57.947-10.683a231.117,231.117,0,0,1-30.95-9c-26.294-9.586-53.1-12.8-80.682-7.631a50.465,50.465,0,0,0-13.889,5.323c-5.674,2.973-7.982,8.528-7.512,14.632,1.878,22.733,3.326,45.544,6.455,68.121,2.192,15.534,6.378,30.912,10.8,46.014a36.8,36.8,0,0,1-1.994,26.8c-1.643,3.521-3.287,7.082-5.244,10.446-9.9,16.9-19.8,33.769-21.638,53.88v7.512c2.113,9.9,4.147,19.8,6.3,29.7a.145.145,0,0,1,.039.118c.744,12.833,3.17,31.614,10.488,41.358,11.736,15.65,11.736,35.215,0,46.953-7.082,7.082-17.061,19.876-23.79,28.913a19.847,19.847,0,0,1-18.977,7.747c-12.168-1.994-32.516-3.559-52.9,2.661a20.932,20.932,0,0,1-18.507-3.4c-10.994-8.1-31.889-20.269-57.987-20.269-31.3,0-42.571,10.016-49.849,24.025a17.8,17.8,0,0,1-17.059,9.781c-20.7-1.525-64.13-.86-101.342,24.885-50.865,35.215-93.9,70.43-93.9,70.43S-7.907,509.818,9.7,531.338c0,0,43.041,58.691,62.605,86.08s19.564,19.564,31.3,62.605,19.562,70.43,35.213,70.43,27.391,0,35.217-23.477,23.474-31.3,23.474-31.3,19.564-21.48,0-30.322c-19.562-8.8-35.213,2.934-43.039-4.893-4.812-4.812-12.522-15.495-17.8-23a38.476,38.476,0,0,1-6.652-18l-.509-5.36c-1.564-15.613-1.878-23.516,6.339-36.9l13.5-23.36a46.177,46.177,0,0,0,6.22-31.691l-1.095-6.457s0-11.738,23.477-11.738c13.537,0,29.7,3.875,40.928,7.2a43.031,43.031,0,0,0,28.6-1.606,9.5,9.5,0,0,1,13.186,8.765c.156,22.224,3.168,63.229,22.928,71.72,27.389,11.738,19.72,37.8,19.72,37.8s-11.894,32.632-15.808,67.847-3.912,54.779-3.912,66.517,0,31.3,11.738,35.215,58.691,11.738,74.342,19.565c10.095,5.046,28.367,16.629,40.028,24.179a44.015,44.015,0,0,0,24.023,7.122h55.639a2.911,2.911,0,0,0,1.918-5.086l-.976-.823a31.834,31.834,0,0,1-10.839-22.34,123.382,123.382,0,0,0-8.061-38.267c-9.783-25.434,1.957-68.472,11.738-89.994,13.068-28.72,25.431-41.084,45-41.084s39.127-11.738,43.041-15.65c2.229-2.231,14.555-3.21,24.806-3.6a23.406,23.406,0,0,1,20.62,10.839c10.643,16.315,34.785,44.448,73.914,41.672,54.777-3.914,83.653-13.7,99.775-13.7,23.474,0,74.028,3.912,86.08,0s37.17-9.783,37.17-41.084,1.292-46.953-26.724-125.209M470.038,26.476c15.769-6.573,31.5-5.518,46.953.86a115.482,115.482,0,0,1,16.629,8.609c12.324,7.629,25.315,9.272,39.166,5.36q4.459-1.293,9.039-2.466C625.139,28,656.246,63.8,650.454,103.205a10.38,10.38,0,0,1-2.229,4.5c-10.487,13.342-23.479,23.632-38.346,31.849a208.047,208.047,0,0,0-21.245,13.616,29.65,29.65,0,0,0-11.387,17.842c-.821,3.756-.7,7.317,3.677,8.921,4.265,1.527,6.81-.744,8.726-4.226,10.683-18.976,29.659-26.724,50.161-20.425,5.244,1.643,8.177-.7,8.765-6.183a61.979,61.979,0,0,1,2.973-13.577c.823-2.308,3.091-4.342,5.167-5.867,4.147-3.091,7.824-1.527,8.177,3.6a15.55,15.55,0,0,1-1.448,8.14c-7.161,13.263-16.238,25.276-30.05,31.849-26.412,12.6-29.541,36.623-27.623,55.365.2,1.683.43,3.326.744,5.595-4.972-2.934-9.274-5.751-13.774-8.138-18-9.7-37.407-13.97-57.713-14.086-22.224-.158-44.45.546-66.478-3.052-5.244-.862-10.446-1.722-15.729-2.622,3.873-8.335,8.53-15.808,10.878-23.946,9.037-31.068,8.842-62.722,2.894-94.22-1.564-8.254-5.321-16.434-9.586-23.749-9.821-16.826-2.073-31.656,13.031-37.916M443,225.752c5.439-.509,10.876-1.8,16.159-1.369,34.55,2.738,69.216,4.891,103.571,9.272,17.1,2.192,32.983,10.253,47.539,19.995,3.052,2.036,2.936,2.229.783,5.988-11.738-7.787-27.819-11.113-29.071-11.192-3.326-.156-15.143,1.136-18.977.2,1.643.586,7.982,2.817,11.15,3.717,8.53,2.427,13.3,1.564,19.564,7.824,3.912,3.914,6.573,7,10.251,9-.116.509-.235,1.018-.391,1.527-3.443-.7-7.082-.862-10.29-2.152-12.64-4.97-25.2-10.174-37.681-15.494-29.227-12.443-59.121-16.238-90.229-8.179-7,1.8-14.4,2-22.38,3.054Z" transform="translate(-0.001 0)" fill="rgba(206,208,214,0.1)"/>
      <path id="Path_7" data-name="Path 7" d="M241.166,62.637c-.332-11.47,2.275-22.045,9.569-31.122a11.529,11.529,0,0,1,4.658-3.659c4.729-1.706,8.894,1.934,7.421,6.692-3.6,11.634-1.026,21.482,7.415,30.077,2.605,2.651,2.246,5.56-.035,8.408-11.217,14-9.337,33.885,3.679,46.448,6.112,5.9,11.331,12.756,16.619,19.446,1.857,2.35,2.672,5.6-.578,7.872a6.654,6.654,0,0,1-9-.632,59.448,59.448,0,0,1-6.69-6.561c-9.436-11.917-21.233-22.242-25.816-37.484-3.879-12.891-7.016-25.93-7.242-39.486" transform="translate(259.843 29.557)" fill="rgba(206,208,214,0.1)"/>
      <path id="Path_8" data-name="Path 8" d="M287.209,21.556c5.886.145,7.785,1.789,7.5,7.471-.769,15.262-2.14,30.5-2.57,45.769-.351,12.449.337,24.925.5,37.388.039,2.948.443,6.093-.44,8.78a8.29,8.29,0,0,1-4.849,4.872c-1.606.42-4.778-1.143-5.657-2.717-2.7-4.859-5.435-9.954-6.721-15.3-2.954-12.289-5.217-24.754-7.456-37.2a28.568,28.568,0,0,1,4.051-20.693c4.193-6.746,8.549-13.259,7.965-22-.339-5.061,2.225-6.507,7.679-6.372" transform="translate(287.743 23.219)" fill="rgba(206,208,214,0.1)"/>
    </g>
  </g>
</svg>
