<svg xmlns="http://www.w3.org/2000/svg" width="100" height="100" viewBox="0 0 100 100">
  <path id="Subtraction_1" data-name="Subtraction 1" d="M-1940-2536a49.688,49.688,0,0,1-19.462-3.929,49.836,49.836,0,0,1-15.893-10.715,49.834,49.834,0,0,1-10.715-15.893A49.689,49.689,0,0,1-1990-2586a49.692,49.692,0,0,1,3.929-19.463,49.835,49.835,0,0,1,10.715-15.893,49.834,49.834,0,0,1,15.893-10.716A49.688,49.688,0,0,1-1940-2636a49.69,49.69,0,0,1,19.463,3.929,49.834,49.834,0,0,1,15.893,10.716,49.834,49.834,0,0,1,10.715,15.893A49.692,49.692,0,0,1-1890-2586a49.689,49.689,0,0,1-3.929,19.462,49.838,49.838,0,0,1-10.715,15.893,49.836,49.836,0,0,1-15.893,10.715A49.69,49.69,0,0,1-1940-2536Zm-20.828-56.25a1.173,1.173,0,0,0-1.172,1.172v25.391a4.693,4.693,0,0,0,4.687,4.688h34.375a4.693,4.693,0,0,0,4.687-4.688v-25.391a1.173,1.173,0,0,0-1.172-1.172Zm3.515-12.5a4.693,4.693,0,0,0-4.687,4.688v3.515a1.173,1.173,0,0,0,1.172,1.172h41.406a1.173,1.173,0,0,0,1.172-1.172v-3.515a4.693,4.693,0,0,0-4.687-4.688h-4.688v-5.078A1.173,1.173,0,0,0-1928.8-2611h-3.906a1.173,1.173,0,0,0-1.172,1.172v5.078h-12.5v-5.078a1.173,1.173,0,0,0-1.172-1.172h-3.906a1.173,1.173,0,0,0-1.172,1.172v5.078Zm14.241,37.716a1.162,1.162,0,0,1-.831-.347l-8.067-8.132a1.175,1.175,0,0,1,.007-1.658l2.773-2.75a1.165,1.165,0,0,1,.825-.34,1.163,1.163,0,0,1,.832.347l4.49,4.527,10.355-10.272a1.166,1.166,0,0,1,.826-.34,1.164,1.164,0,0,1,.832.347l2.75,2.773a1.174,1.174,0,0,1-.006,1.658l-13.961,13.847A1.163,1.163,0,0,1-1943.072-2567.035Z" transform="translate(1990 2636)" fill="#848897"/>
</svg>
