<svg xmlns="http://www.w3.org/2000/svg" xmlns:xlink="http://www.w3.org/1999/xlink" width="300" height="300" viewBox="0 0 300 300">
  <defs>
    <clipPath id="clip-path">
      <rect id="Rectangle_17" data-name="Rectangle 17" width="271.156" height="200" fill="#dbdbdb"/>
    </clipPath>
  </defs>
  <g id="Group_82" data-name="Group 82" transform="translate(567 -2555)">
    <rect id="Rectangle_73" data-name="Rectangle 73" width="300" height="300" transform="translate(-567 2555)" fill="none"/>
    <g id="Group_72" data-name="Group 72" transform="translate(-538.156 2605)">
      <g id="Group_1" data-name="Group 1" clip-path="url(#clip-path)">
        <path id="Path_1" data-name="Path 1" d="M270.035,23.784c-3.138-11.094-17.449-9.752-13.575-5.979,9.7,3.252,3.19,15.639-3.358,18.85-11.916,7.838-26.284-.289-39.34,3.274-1.714-8.422-9.3-23.372-21.388-23.953C187.4-.11,166.27-3.813,152.8,3.805c-10.026,1.1-19.626,3.486-28.423,8.587a15.523,15.523,0,0,1,1.558-10.28c.566-1.031-.607-1.843-1.495-1.7-7.1,1.754-10.8,10-8.877,16.748a54.865,54.865,0,0,1-8.672,3.663c-11.69,3.2-24.024,1.707-36,2.041-20.68-.751-14.587,2.38-30.195,10.123-10.173,4-18.972,7.064-25.044,16.9C.791,71.349-3.894,89.55,6.851,114.2c1.075,2.642,2.159,5.491.515,8.161-3.564,7.992-2.742,16.989-2.572,25.519.071,6.2.426,12.412.383,18.626-.77,8.179-7.889,14.516-4.044,23.408.7.938.729,2.047,1.8,1.707,5.879-1.138,18.441.074,23.9-1.478-11.5-19.86-1.108-41.168,5.876-58.04,2.5-6.355,3.912-9.62,9.827-13.4,7.928,2.288,9.174,11.924,8.409,19.015a15.762,15.762,0,0,0,2.876,12.369c1.261,2.756.907,5.979,1.807,8.877.97,3.11,3.287,5.582,4.93,8.395,4.208,7.184,3.791,16.068,3.252,24.378a129.927,129.927,0,0,1,22.394.708c-15.055-12.4-16.939-22.827-9.713-40.538,4.166-9.068,8.622-28.848,22.111-24.456-4.711-10.407-9.189-24.811.149-33.879-10.252,26.551,26.233,78.91,8.907,91.958a9.534,9.534,0,0,1,.36,10.281c6.057-.115,13.432.467,18.412,3.917a70.752,70.752,0,0,1-3.542-17.712c-5.459-16.686,11.084-19.379,4.2-34.643-4.086-16.069,23.3,3.071,26.4,7.014,1.155,6.886,2.239,13.872,1.34,20.786-1.02,7.8-4.548,15.628-2.572,23.237A101.6,101.6,0,0,0,170.546,200c-7.069-18.82-5.038-23.143,2.786-40.078,1.252-8.126-.852-13.5,6.913-18.931,5.065-.042,8.444-4.789,8.559-9.571,10.715,10.145,11.011-13.381,11.7-14.559,1.813-8.055,9.054-16.8,10.676-24.116.907-3.89,4.57-16.478,6.149-21.5-.532.078-3.541,2.775-4.374,2.716-8.6-1.105-.832-11.205,4.96-3.542.51-.922,1.682-3.907,1.958-3.928,3.819-.489,5.767,3.089,8.36,5.328,6.284-3.62,21.835-3.039,25.412-8.579-4.357-3.308-11.7-5.5-16.811-8.041,0-.021,0,0,0-.021,16-1.111,39.764-11.742,33.194-31.392M172.175,93.7c-12.041-19.742.48-24.357-8.1-33.2,18.566,12.677.583,2.5,8.1,33.2m-20.786-71.88c4.9,2.118,5.137,5.292,7.354,9.352-3.616-2.431-6.682-3.567-13.949-5.456-3.572-.428-7.207-.719-10.6-2.019,4.718-.807,13.085-3.662,17.195-1.877M160.7,41.062c-9.774,1.3-25.722-5.162-34.536-13.684-4.1-3.961-8.857-12.96-7.13-18.585.317-1.106,1.02-3.39,2.472-2.1-1.87,22.524,21.463,19.864,35.4,28.707,3.727.53,2.521-1.1,5.648,1.291,2.788,2.113,2.163,3.84-1.856,4.376m2.669,18.924c-2.288,2.04-6.985,2.727-9.656.758-.312-1.885,2.075-4.032,3.882-5.767a19.317,19.317,0,0,1,5.773,5.009m-24.088,71.221c-1.963-2.537-3.117-5.611-4.9-8.275-3.458-5.164-9.26-8.792-11.364-14.643-.595-2.3-1.636-4.421-4.024-5.193-8.3-3.45-19.022-10.279-16.536-20.623-8.594,2.734-16.613-6.292-12.887-14.5a73.865,73.865,0,0,1-11.243,7.113C83.234,85.362,92.869,96.138,88.93,108.21c-2.515,7.531-11.952,11.562-18.115,6.071-6.681-4.818-4.8-13.482-6.192-21.579a74.493,74.493,0,0,1-1.017-11.891C67.338,71.737,75.172,60.425,82.625,58.1,71.672,56.716,60.79,61.245,53,68.763c7.044-.326,4.95,13.2,2.138,17.913-4.988,11.568-7.82,18.9-16.173,27.938-17.091,18.5-16.408,27.451-23.576,51.561-.311,1.047-9.2,17.394-9.281,18.471-.616-6.106,4.073-11.158,4.619-17.144,3.6-16.458-4.46-50.462,12.157-58.76.007.007.815-1.58,1.2-1.694,1.971-1.032-.139-2.693-1.636-1.813C12.892,106.411,6.643,95.586,8,87c3.077-14.666,9.941-29.952,20.912-40.383,4.054-3.357,8.871-4.944,13.7-6.843,5.908-2.16,10.775-6.284,15.947-9.748C68.336,27.1,79,27.394,89.122,26.425c5.059-.154,11.229.418,14.389,4.939a1.085,1.085,0,0,0,1.24.411c20.5-6.5,17.595.351,34.431,8.43-6.5,1.218-12.49,2.657-16.061,7.389,9.146,5.229,17.9,6.752,18.279,6.631,5.147-1.234,8.949-2.293,14.087-.783-10.358,6.151-5.879,20.2-7.329,30.461-.829,5.887,2.154,10.768,4.35,16a1.893,1.893,0,0,1,.191-.12c5.371,14.537-6.935,23.032,4.187,23.6-1.176,2.395-.276,13.042,2.983,13.723-7.212,2.126-15.919.134-20.588-5.9m32.653-2.848a54.027,54.027,0,0,1-14.254-5.646c9.224-1.46,19.044-.567,26.787,5.1a24.153,24.153,0,0,1-12.532.545m23.5-5.433c-6.922,12.306-12.421-5.014-23.854-3.989-3.579.16-7.45,1.517-10.811-.326-4.01-2.573-5.858-10.224-2.8-13.985a48.6,48.6,0,0,1,5.626-2.94c8.093-5.016,18.7-7.9,24.534,1.913,6.364,4.958,13.79,10.964,7.3,19.327m72.029-96.67c-1.11,21.073-31.6,23.957-47.9,23.082-5.81-1.676-.338-6.136,3.3-5.895,7.021-2.126,13.908,1.153,20.934,1.084,10.311-.749,24.05-12.939,20.078-23.959a10.084,10.084,0,0,1,3.585,5.674c.007.006,0,.014,0,.014" transform="translate(0 0)" fill="#dbdbdb"/>
        <path id="Path_2" data-name="Path 2" d="M288.6,168.522c.035.851-.886,1.12-1.559,1.34a12.517,12.517,0,0,1-3.195.581c-.461.014-.921.014-1.382-.014l.426-.234c.624-.34,1.24-.694,1.835-1.076a12.729,12.729,0,0,0,2.82-2.437,3,3,0,0,1,1.056,1.841" transform="translate(-98.402 -58.066)" fill="#dbdbdb"/>
        <path id="Path_3" data-name="Path 3" d="M277.068,157.929a14.785,14.785,0,0,1-2.529-1.984,12.956,12.956,0,0,0-14.035-1.609.331.331,0,0,1,.021.121.333.333,0,0,0-.085-.092.907.907,0,0,0-.163-.127,1.118,1.118,0,0,0-.361-.135c.12-.064.248-.121.368-.184,3.039-1.467,6.256-2.736,9.628-1.736a12.922,12.922,0,0,1,7.156,5.745" transform="translate(-90.547 -52.892)" fill="#dbdbdb"/>
        <path id="Path_4" data-name="Path 4" d="M258.482,164.953a5.907,5.907,0,0,1-.05.708c-.4.093-.807.184-1.219.241a5.588,5.588,0,0,1-2.324-.113,3.109,3.109,0,0,1-1.651-1.048,3.839,3.839,0,0,1-.553-1.934c-.113-1.155-.368-2.848.539-3.762a3.2,3.2,0,0,1,1.693-.7c.212-.042.426-.078.638-.12a5.08,5.08,0,0,0,.425,4.094,9.058,9.058,0,0,0,1.778,2.005c.205.184.467.4.723.631" transform="translate(-87.986 -55.12)" fill="#dbdbdb"/>
      </g>
    </g>
  </g>
</svg>
