<svg xmlns="http://www.w3.org/2000/svg" xmlns:xlink="http://www.w3.org/1999/xlink" width="300" height="300" viewBox="0 0 300 300">
  <defs>
    <clipPath id="clip-path">
      <rect id="Rectangle_18" data-name="Rectangle 18" width="202.716" height="200" fill="#3b4259"/>
    </clipPath>
  </defs>
  <g id="Group_81" data-name="Group 81" transform="translate(1008 -2349)">
    <rect id="Rectangle_72" data-name="Rectangle 72" width="300" height="300" transform="translate(-1008 2349)" fill="none"/>
    <g id="Group_70" data-name="Group 70" transform="translate(-959.358 2399)">
      <g id="Group_3" data-name="Group 3" clip-path="url(#clip-path)">
        <path id="Path_5" data-name="Path 5" d="M200.95,76.707a53.2,53.2,0,0,0-12.321-12.8,30.085,30.085,0,0,0-9.8-5.271c-2.507-.709-5-1.032-7.366.515a5.862,5.862,0,0,1-1.05.464c-2.79,1.141-5.709,1.895-8.525,2.945a17.813,17.813,0,0,0-5.342,2.719,2.506,2.506,0,0,0-1,3.222,63.757,63.757,0,0,1,2.255,9.286,18.967,18.967,0,0,1-.1,7.965,5.571,5.571,0,0,1-4.633,4.414,12.4,12.4,0,0,1-4.137-.18c-1.953-.322-3.667-1.321-5.529-1.907-4-1.249-8.145-1.695-12.257-2.359a34.626,34.626,0,0,1-9.653-2.6c-4.092-1.966-6.889-5.008-7.636-9.622a28.123,28.123,0,0,1,.49-9.054,51.426,51.426,0,0,0,1.037-9.421,8.18,8.18,0,0,0-1.044-4.137c-1.057-1.8-2.159-3.564-3.17-5.387a9.175,9.175,0,0,1-1.231-6.232,5.449,5.449,0,0,0,.258-1.437A12.081,12.081,0,0,0,107.08,30.2a13.245,13.245,0,0,1-3.454-6.612,37.67,37.67,0,0,1-.786-6.579,2.622,2.622,0,0,0-.458-1.437,4.219,4.219,0,0,0-4.846-1.656c-1.25.284-2.468.715-3.725,1-1.025.232-1.469-.238-1.276-1.269.135-.734.374-1.45.509-2.178.322-1.682-.18-2.114-1.785-1.579-.032.006-.084-.032-.142-.052-.019-.122-.026-.251-.045-.374a14.264,14.264,0,0,0-2.462-6.9A5.348,5.348,0,0,0,83.469.042,7.543,7.543,0,0,0,78.218,3.1c-1.6,2.146-3.4,2.642-5.767,1.373-.535-.284-1.037-.619-1.63-.973a9.04,9.04,0,0,0,1.74,3.745c1.134,1.63,2.455,3.112,3.692,4.658a18.139,18.139,0,0,1,3.3,5.278,4.035,4.035,0,0,1-.992,4.615c-2.771,2.506-3.37,5.709-3.177,9.209.174,3.163.928,6.25,1.4,9.375a19.405,19.405,0,0,1,.277,5.916,47.254,47.254,0,0,1-5.349,15.047c-3.074,5.735-6.889,10.988-10.562,16.336a103.508,103.508,0,0,0-9.3,15.9,21.554,21.554,0,0,0-1.276,14.467,47.387,47.387,0,0,0,4.169,10.272c2,3.859,4.189,7.623,5.916,11.618a30.272,30.272,0,0,1,2.752,10.62c.1,2.017-.348,4-.419,5.993a16.135,16.135,0,0,1-3.641,9.479,42.911,42.911,0,0,1-10.472,9.3,103.471,103.471,0,0,1-26.917,12.527c-7.14,2.2-14.357,4.111-21.968,3.28v.773A4.669,4.669,0,0,0,3.37,185c1.54.5,3.112.889,4.646,1.4a5.211,5.211,0,0,1,3.654,3.151,2.414,2.414,0,0,1-.142,2.075c-.277.522-.593,1.025-.825,1.566a2.24,2.24,0,0,0,.425,2.571,1.962,1.962,0,0,0,2.281.412,25.431,25.431,0,0,0,4.756-2.526,76.482,76.482,0,0,1,9.215-4.839,10.316,10.316,0,0,1,2.739-.773,2.5,2.5,0,0,1,2.655,1.3,10.429,10.429,0,0,1,.76,1.514c1.682,4.421,4.962,7.076,9.337,8.551.554.188,1.108.393,1.663.587h.773c.844-.523,1.012-.974.7-2.082a15.457,15.457,0,0,0-1.134-2.7c-.677-1.385-1.385-2.758-1.991-4.176a10.283,10.283,0,0,1-.38-5.239c.084-.844.522-1,1.224-.535a16.926,16.926,0,0,1,2.938,2.946,31.486,31.486,0,0,0,3.377,3.5,6.055,6.055,0,0,0,.625.451c1.231.793,1.927.638,2.648-.606a7.8,7.8,0,0,0,.135-7.617,14.638,14.638,0,0,0-3.177-4.337c-.477-.451-.5-.734-.1-1.257a12.67,12.67,0,0,1,8.77-4.943,59.133,59.133,0,0,1,10.02-.058c4.356.142,8.674.013,12.553-2.352.406-.245.606-.026.87.168a51.929,51.929,0,0,0,11.9,6.65,28.876,28.876,0,0,0,17.573,1.315c1.16-.29,2.4-.213,3.589-.4a43.354,43.354,0,0,0,10.916-3.718c3.7-1.682,7.314-3.55,11.142-4.93a22.71,22.71,0,0,1,8.442-1.6,14.017,14.017,0,0,1,9.563,4.279,2.962,2.962,0,0,1,.528.929,32.02,32.02,0,0,0,4.356,7.79,6.558,6.558,0,0,0,5.258,2.475c2.513,0,4.968-.483,7.456-.69a51.88,51.88,0,0,1,6.476-.219.746.746,0,0,0,.883-.625,4.133,4.133,0,0,0-.574-3.531,13.811,13.811,0,0,0-3.763-3.628,97.558,97.558,0,0,0-9-5.387,47.054,47.054,0,0,1-7.262-4.685,6.151,6.151,0,0,1-2.513-3.582c-.161-.954-.064-1.5.967-1.959,8.732-3.854,13.687-10.64,15.356-19.951A52.79,52.79,0,0,0,174,124.856c-.18-1.733-.019-2.023,1.624-2.648a10.141,10.141,0,0,1,3.8-.47c1.392.019,2.784.013,4.176.052a4.5,4.5,0,0,0,3.892-1.973,20.461,20.461,0,0,0,2.481-5.374,2.046,2.046,0,0,0-.342-1.836,6.263,6.263,0,0,0-1.269-1.341,11.833,11.833,0,0,1-1.6-1.559c-.767-.954-.748-1,.387-1.283.129-.032.251-.077.374-.115,2.346-.7,2.919-1.973,1.895-4.214a37.988,37.988,0,0,0-2.056-3.538,11.691,11.691,0,0,1-1.3-2.6c.464,0,.863.02,1.269,0a1.842,1.842,0,0,0,1.9-2.384,16.129,16.129,0,0,0-1.108-3.525A21.578,21.578,0,0,1,186.9,88.48c.7.49,1.276.9,1.856,1.3a10.447,10.447,0,0,0,2.661,1.385c1.521.483,2.384-.129,2.481-1.746a18.224,18.224,0,0,0-.38-4.221c-.5-2.887-1.237-5.729-1.54-8.647-.058-.587-.077-1.18-.11-1.8a1.431,1.431,0,0,1,.889.27c2.391,1.147,4.543,2.739,6.927,3.9a10.342,10.342,0,0,0,3.029,1.1v-.155c-.58-1.056-1.1-2.146-1.766-3.15M56.011,170.925a58.385,58.385,0,0,1-6.083,1.72,112.808,112.808,0,0,0-11.5,3.228,10.909,10.909,0,0,0-2.494,1.218q-1.721,1.2.1,2.281c1.089.657,2.333.541,3.525.677a24.149,24.149,0,0,1,6.057,1.076,5.9,5.9,0,0,1,3.551,3.228,3.078,3.078,0,0,1,.142.432c.013.046-.013.1-.039.213a22.715,22.715,0,0,0-3.409-2.384A8.748,8.748,0,0,0,44,181.88a3.043,3.043,0,0,0-3.912,1.971,11.234,11.234,0,0,0-.419,5.561,24.015,24.015,0,0,0,1.3,5.239,6.847,6.847,0,0,1-2.21-2.011,14.73,14.73,0,0,1-2.262-6.1c-.284-1.411-.619-2.81-.844-4.234-.142-.921-.722-1.173-1.624-1.1a6.787,6.787,0,0,0-2.616.889c-2.249,1.192-4.466,2.449-6.74,3.6a13.67,13.67,0,0,1-7.4,1.779,7.784,7.784,0,0,1-4.923-2.449c5.9-.11,10.9-2.641,15.923-5.046,5.31-2.545,10.433-5.471,15.814-7.875a30.477,30.477,0,0,1,8.113-2.642,6.256,6.256,0,0,1,3.841.483c.264.129.683.226.664.561-.019.271-.432.316-.683.413m67.933-71.477a5.1,5.1,0,0,1,1.875-.877,23.416,23.416,0,0,1,5.709-.806c.412-.006.818-.045,1.263-.077a18.9,18.9,0,0,1,4.015.464c.387.122.863.226.941.7s-.342.761-.7.928c-.638.3-.509.606-.148,1.031a13.455,13.455,0,0,0,4.311,3.19c1.379.7,2.777,1.347,4.092,2.166a8.842,8.842,0,0,1,3.68,4.04,3.923,3.923,0,0,0,1.959,1.786,21.23,21.23,0,0,1,2.5,1.366c.509.36,1.141.811.986,1.443-.135.561-.9.58-1.443.67a7.388,7.388,0,0,1-4.653-1.044,18.844,18.844,0,0,1-5.387-4.2,19.114,19.114,0,0,0-7.527-4.691c-2.816-1.1-5.748-1.933-8.487-3.254a22.406,22.406,0,0,1-2.984-1.766c-.574-.406-.458-.709-.006-1.063M103.961,33.461c1.263,2.41,2.288,4.743,1.766,7.443a8.717,8.717,0,0,0,.593,4.91,47.7,47.7,0,0,0,4.7,8.757,6.333,6.333,0,0,1,.934,3.126,30.6,30.6,0,0,1-.986,8.093,20.094,20.094,0,0,0-.29,8.036c.361,1.766-1.3,4.137-3.293,4.95a6.225,6.225,0,0,1-7.262-2.043c-1.5-1.907-3.267-2.031-5.007-.362-.876.838-1.585,1.824-2.507,2.623-.522.445-.87.368-1.263-.129a3.106,3.106,0,0,1-.606-2.107,57.929,57.929,0,0,0-.271-7.327c-.271-2.92-.593-5.832-.851-8.757-.438-4.936-.3-9.821,1.624-14.5.058-.142.122-.284.2-.458a4.5,4.5,0,0,1,1.166,1.334,22.006,22.006,0,0,1,3.106,8.081,63.465,63.465,0,0,0,2.043,8.23,20.432,20.432,0,0,0,1.785,3.582,1.434,1.434,0,0,0,1.547.722,1.581,1.581,0,0,0,1.411-1.037,6.434,6.434,0,0,0,.238-3.506c-.367-2.59-.8-5.181-1.211-7.771a7.627,7.627,0,0,1,.077-2.757,4.8,4.8,0,0,0-1.347-4.4,18.054,18.054,0,0,0-4.111-2.989c-.632-.387-1.257-.787-2.023-1.264a14.776,14.776,0,0,0,2.326-1c1.4-.863,1.521-1.74.374-2.913a2.082,2.082,0,0,1-.451-.47c1.959.644,3.77.632,5.316-.85,1.456-1.393,1.888-3.248,2.268-5.253M88.747,43.178c-.251-2.165-.483-4.137-.728-6.27,1.347.729,2.552,1.379,3.763,2.03.3.161.142.329.013.483-.967,1.192-1.933,2.384-3.048,3.757m11.387-7.443a1.126,1.126,0,0,1-.638.915,1.246,1.246,0,0,1-1.186.006q-1.363-.638-2.668-1.378a.873.873,0,0,1-.3-1.038,4.321,4.321,0,0,1,.921-1.675,24.5,24.5,0,0,0,2.462-3.152,2.008,2.008,0,0,1,.09,1.624c-.193.613-.412,1.211-.606,1.824-.425,1.327-.071,2.016,1.244,2.513.238.091.683.007.683.361M92.1,20.476a24.549,24.549,0,0,1,4.491-1.6c2.455-.554,3.325.361,2.623,2.8a27.457,27.457,0,0,1-2.5,5.542c-.941,1.708-1.843,3.454-2.938,5.065a4.326,4.326,0,0,0,.606,5.684,3.923,3.923,0,0,0,.354.3c-.032.045-.064.084-.1.122-2.017-1.115-4.028-2.248-6.057-3.344A1.889,1.889,0,0,1,87.5,33.177c.006-1.23-.071-2.467-.155-3.7a8.13,8.13,0,0,0-2.3-5.549c2.365-1.237,4.672-2.41,7.05-3.454M78.81,34.853c.238-.4.5-.78.728-1.185.509-.909.522-1.38.084-2.991a6.484,6.484,0,0,1,1.959,2.513,3.327,3.327,0,0,1-.7,3.583,10.646,10.646,0,0,0-1.907,2.32,3.732,3.732,0,0,1-.161-4.24M76.04,60.275a34.645,34.645,0,0,0,3.873-15.414c0-.664.29-.664.754-.49A2.569,2.569,0,0,1,82.1,45.8a9.988,9.988,0,0,1,.767,3.672c.213,3.164-.013,6.328-.032,9.492-.032,4.459-.045,8.906,1.257,13.236a16.066,16.066,0,0,0,2.822,5.432c-.722-.013-1.315.006-1.708.541a3.083,3.083,0,0,0-.47,1.915c.006,1.333.245,2.661.174,4.008-.058,1.115-.258,1.231-1.211.606a5.87,5.87,0,0,1-2.075-2.81c-.741-1.733-1.057-3.6-1.688-5.368a10.318,10.318,0,0,0-.458-1.141c-.767-1.547-1.766-1.843-3.28-1.031-.316.175-.632.69-.96.438-.238-.187-.045-.728-.006-1.108A20.424,20.424,0,0,1,76.3,69.5c.161-.483.309-.979.425-1.476.277-1.141-.18-1.617-1.34-1.411a25.256,25.256,0,0,0-3.789,1.257,76.966,76.966,0,0,0,4.446-7.6M81.7,166.1a8.844,8.844,0,0,1-5.548-2.764c-.264-.257-.2-.567-.2-.864-.013-3.556-.116-7.114-.006-10.665a56.192,56.192,0,0,0-2.255-16.754c-1.2-4.363-2.565-8.679-3.4-13.133-.213-1.134-.374-2.281-.561-3.422a29.784,29.784,0,0,1,4.781,8.384,79.54,79.54,0,0,1,3.583,13.39,111.877,111.877,0,0,0,3.686,15.2,27.124,27.124,0,0,0,1.849,4.317,8.779,8.779,0,0,1,1.057,2.965A2.7,2.7,0,0,1,81.7,166.1m76.845,2.03a15.555,15.555,0,0,0,3.448,1.965c3.138,1.5,6.592,2.41,9.337,4.7.335.277.612.619.928.921.5.47.29.773-.2,1.063a2.549,2.549,0,0,1-1.94.251,10.463,10.463,0,0,1-3.692-1.869c-2.842-2.017-5.349-4.44-8-6.682-2.139-1.81-4.24-3.68-6.992-4.761a3.01,3.01,0,0,1,2.926.637c1.553,1.076,2.745,2.565,4.189,3.77m7.346-45.269a13,13,0,0,1-3.705,9.215,18.062,18.062,0,0,1-6.85,4.06,50.959,50.959,0,0,1-11,2.313c-5.078.626-10.207.787-15.279,1.508a5.492,5.492,0,0,1-2.52-.612,35.76,35.76,0,0,1-11.754-7.244c-3.622-3.145-6.889-6.657-10.33-9.988a63.618,63.618,0,0,0-8.97-7.43c-.715-.477-1.276-1.186-1.953-1.74a40.718,40.718,0,0,0-4.266-2.784,16.449,16.449,0,0,1-3.415-2.629,5.457,5.457,0,0,1-1.508-3.009,3.74,3.74,0,0,1,1.186.644,140.474,140.474,0,0,1,17.934,13.874,154.8,154.8,0,0,0,13.384,11.071,36.737,36.737,0,0,0,13.513,6.186,37.4,37.4,0,0,0,15.93-.374,69.425,69.425,0,0,0,11.006-3.512,1.87,1.87,0,0,0,.677-.348,10.744,10.744,0,0,0,2.984-5.477c.251-1.521-.554-2.21-2.088-1.965a9.041,9.041,0,0,0-2.275.7,36.1,36.1,0,0,1-7.952,2.146,27.881,27.881,0,0,1-6.206.644c-.393-.019-.941.09-1.076-.387s.406-.651.728-.883a1.271,1.271,0,0,1,.689-.309c2.777-.02,5.181-1.193,7.559-2.436,2.442-1.269,4.775-2.739,7.34-3.776a10.5,10.5,0,0,1,4.5-.909,5.713,5.713,0,0,1,1.366.226c2.062.644,2.423,1.108,2.352,3.222m5.117-49.277c-1.5-.329-3-.7-4.492-1.043l-.1.154c.361.47.722.928,1.07,1.4a20.916,20.916,0,0,1,1.3,1.831c.812,1.391.5,2.242-.979,2.86-.213.091-.632.045-.4.528a7.459,7.459,0,0,1-.11,6.354,14.836,14.836,0,0,1-5.149,6.605,3.011,3.011,0,0,1-1.25.586c-.677.11-.967-.122-.986-.806a4.111,4.111,0,0,1,.348-1.572,8.454,8.454,0,0,1,.722-1.617c1.4-2.166,1.366-4.524.986-6.927s-.863-4.808-1.211-7.224a9.786,9.786,0,0,1,.232-4.588,4.627,4.627,0,0,1,3.383-3.178c2.417-.625,4.73-1.6,7.2-1.991a6.434,6.434,0,0,1,.844-.077c1.16,0,1.527.528.9,1.482a7.515,7.515,0,0,0-.825,5.787c.277,1.592.116,1.792-1.482,1.437m7.688,31.756A6.145,6.145,0,0,0,177.23,110a9.225,9.225,0,0,0,1.031,3.293c.245.477.187.644-.367.761a4.552,4.552,0,0,1-5.484-4.415c-.019-.257,0-.516,0-.773-.019-2.4,1.147-4.066,3.164-4.5a5.935,5.935,0,0,1,2.887.239c.509.141.6.3.232.74" transform="translate(0 0)" fill="#3b4259"/>
      </g>
    </g>
  </g>
</svg>
