<svg xmlns="http://www.w3.org/2000/svg" xmlns:xlink="http://www.w3.org/1999/xlink" width="300" height="300" viewBox="0 0 300 300">
  <defs>
    <clipPath id="clip-path">
      <rect id="Rectangle_24" data-name="Rectangle 24" width="154.812" height="262.249" fill="#f2f2f2"/>
    </clipPath>
  </defs>
  <g id="Group_83" data-name="Group 83" transform="translate(970 -2834)">
    <rect id="Rectangle_74" data-name="Rectangle 74" width="300" height="300" transform="translate(-970 2834)" fill="none"/>
    <g id="Group_71" data-name="Group 71" transform="translate(-897.406 2852.875)">
      <g id="Group_11" data-name="Group 11" clip-path="url(#clip-path)">
        <path id="Path_9" data-name="Path 9" d="M70.146,262.249c-1.032-.956-1.053-1.21-.208-2.42a73.952,73.952,0,0,0,12.589-31.2c.426-2.692.372-2.791-2.2-3.768a36.081,36.081,0,0,0-16.019-2.543,37.825,37.825,0,0,0-8.292,2.1,51.38,51.38,0,0,0-13.257,6.695c-.631.438-1.24.793-1.968.241-.79-.6-.527-1.332-.229-2.056a23.611,23.611,0,0,1,8.077-10.035c1.661-1.234,3.267-2.548,4.969-3.723,3.978-2.745,8.517-3.837,13.245-4.268,10.1-.921,19.561-3.68,27.892-9.685a41.018,41.018,0,0,0,10.393-10.445,12.393,12.393,0,0,0,1.6-5.26,54.914,54.914,0,0,0-1.256-20.334,20.658,20.658,0,0,0-9.912-12.884q-8.309-4.931-17-9.208c-2.5-1.227-5.408-1.595-8.113-2.414A89.072,89.072,0,0,1,54.847,134.5a43.514,43.514,0,0,1-7.424-4.84,2.62,2.62,0,0,0-2.376-.7c-.253.813-.267,1.748-.714,2.058-.529.368-1.433.2-2.32.272-.016,1.363-1.014,1.319-2.149,1.228-2.576-.208-5.159-.334-7.739-.494-.024.092-.047.182-.071.273.783.275,1.559.581,2.354.82,1.056.316,2.134.563,3.192.874,1.166.341,1.537.866,1.288,1.729s-.829,1.119-2.019.826a42.14,42.14,0,0,0-4.7-1.2c-3.517-.446-7.059-.7-10.591-1.024a3.007,3.007,0,0,0-.578.06l-.085.272c1.948.8,3.888,1.627,5.846,2.407,1.119.446,2.267.821,3.4,1.233a1.167,1.167,0,0,1,.781,1.648,1.226,1.226,0,0,1-1.666.8c-.99-.3-1.949-.7-2.938-1-1.046-.32-2.11-.578-3.167-.864l-.248.347q1.264,1.153,2.528,2.307c.566.515.873,1.125.405,1.825a1.406,1.406,0,0,1-1.938.394c-4.869-2.2-9.761-4.344-14.593-6.622a14.951,14.951,0,0,0-6.41-1.37,4.914,4.914,0,0,1-1.542-.053,2.278,2.278,0,0,1-1.258-.963c-.3-.648.036-1.23.728-1.6a82.717,82.717,0,0,1,16.024-6.64,89.7,89.7,0,0,1,19.942-3.3c-1.2-.628-2.391-1.262-3.591-1.883-4.781-2.481-9.558-4.983-13.71-8.467a36.138,36.138,0,0,1-4.223-4.106,28.657,28.657,0,0,1-3.329-4.739,3.548,3.548,0,0,1,.711-4.467c.506-.509.358-.651-.255-.995-2.066-1.161-3.851-2.653-4.421-5.11a3.281,3.281,0,0,1,.84-3.166c.21-.221.193-.7.2-1.057s-.186-.752-.106-1.085c.4-1.7.947-3.363,1.288-5.071a3.9,3.9,0,0,1,1.729-2.656,13.868,13.868,0,0,0,5.228-6.661,7.424,7.424,0,0,0-1.277-7.3,1.172,1.172,0,0,1-.25-1.349,100.417,100.417,0,0,1,17.93-28.758A30.67,30.67,0,0,1,52.545,25.9c1.328-.2,2.678-.255,4.018-.365A36.393,36.393,0,0,1,62,25.156a50.88,50.88,0,0,1,6.028,1.109c.072-1.333.235-2.833.219-4.332q-.1-10.2-.3-20.392c-.012-.712.172-1.24.868-1.452a1.266,1.266,0,0,1,1.7.758q1.562,3.6,3.114,7.211a2.01,2.01,0,0,0,.472.808c0-1.051-.027-2.1.008-3.154a15.322,15.322,0,0,1,.244-2.966,1.812,1.812,0,0,1,1.1-1.134,1.5,1.5,0,0,1,1.252.712c.935,1.993,1.75,4.043,2.75,5.883.54.377,1.262.639,1.587,1.153C82.5,11.654,83.871,14,85.2,16.375a8.922,8.922,0,0,0,1.492,2.218,24.72,24.72,0,0,1,2.721,3.757,3.638,3.638,0,0,0,1.376,1.384,9.621,9.621,0,0,1,2.508,2.281c1.417,1.6,2.739,3.286,4.134,4.907a1.589,1.589,0,0,0,.955.564,1.123,1.123,0,0,1,1.22,1.119,8.927,8.927,0,0,0,1.423,4.158c.134.2.351.465.541.474a4.859,4.859,0,0,1,3.9,2.431,46.134,46.134,0,0,1,2.609,4.8c.6,1.2,1.1,2.444,1.639,3.665,1.582-.629,1.857-.552,2.574,1,1.2,2.6,2.322,5.229,3.531,7.82a4.164,4.164,0,0,0,1.028,1.112c.756.7,1.594,1.326,2.292,2.079a19.918,19.918,0,0,1,4.419,7.989,17.323,17.323,0,0,0,1.148,2.418c1.175-.409,1.688.139,2.076,1.116.636,1.6,1.5,3.114,2.074,4.735,1.388,3.939,4.373,6.728,6.877,9.868a9.4,9.4,0,0,0,.858,1.036c3.122,2.925,3.658,6.9,4.425,10.789.113.575.189,1.157.282,1.736a1.322,1.322,0,0,0,1.043,1.251,1.155,1.155,0,0,1,.611.754c.484,1.9.916,3.824,1.36,5.739.357,1.539.648,1.735,2.377,1.439.153.68.336,1.366.459,2.062q.478,2.7.91,5.407c.259,1.624.827,1.972,2.5,1.4.266,2.618.585,5.212.769,7.817.083,1.175.391,2.022,1.7,2.235.221,4.285.254,8.54.712,12.747.46,4.237-.206,8.374-.525,12.547-.085,1.123.341,1.705,1.6,1.869-.659,1.6-1.2,3.156-1.923,4.622-1.033,2.1-2.2,4.14-3.294,6.212-.136.258-.365.655-.268.818.531.889.077,1.579-.328,2.311a71.369,71.369,0,0,1-9.224,12.837,5.935,5.935,0,0,0-.4.572l-.206-.164c.154-.286.3-.578.464-.856a74.949,74.949,0,0,0-4.768-84.474c-.775-1.029-1.351-1.21-2.026-.674-.72.573-.745,1.464-.047,2.377a72.059,72.059,0,0,1,7.89,75.181,73.3,73.3,0,0,1-9.34,14.743c-.36.446-.357,1.172-.58,1.745a2.327,2.327,0,0,1-.59.96q-7.416,5.982-14.867,11.918-6.612,5.245-13.295,10.4a4.525,4.525,0,0,0-1.788,3.885c.4,6.212-1.505,11.863-3.931,17.384a53.13,53.13,0,0,1-15.427,20.223c-2.537,2.047-5.391,3.7-8.07,5.577a14.061,14.061,0,0,0-1.61,1.546ZM90.606,116.908a1.975,1.975,0,0,1,.152.769c-.285,1.544-.706,3.068-.907,4.621-.155,1.2-.066,2.426,1.578,2.642.111.015.207.164.3.259.848.857,1.7,1.706,2.537,2.578,1.174,1.231,1.729,1.232,2.841-.033a6.067,6.067,0,0,1,4.211-2.174,2.283,2.283,0,0,1,1.743.5,4.128,4.128,0,0,0,3.066,1.674,6.667,6.667,0,0,1,4.065,2.072,2.856,2.856,0,0,0,1.37.973c.5.061,1.054-.371,1.332-.484.77.355,1.5.992,2.084.876s1-.992,1.487-1.535a1.865,1.865,0,0,1,1.4.409c1.206.921,2.316,1.97,3.548,2.851a2.034,2.034,0,0,0,1.587.252,1.532,1.532,0,0,0,.743-1.183c.052-1.446.872-2.126,2.173-1.461a16.51,16.51,0,0,1,2.732,2.01c.8.651,1.51,1.421,2.332,2.044a1.42,1.42,0,0,0,2.335-.513,2.363,2.363,0,0,0-.059-2.468,6.708,6.708,0,0,0-1.125-1.474,161.769,161.769,0,0,0-15.49-13.878c-5.867-4.416-12.165-7.988-19.367-9.742a9.609,9.609,0,0,0-2.551-.263,15.128,15.128,0,0,0-2.839.4c-2.245.505-4.493,1.014-6.705,1.643a1.289,1.289,0,0,0-1.014,1.817c.34.808.97.965,1.979.668a43.946,43.946,0,0,1,5.091-1.32,16.034,16.034,0,0,1,5.071-.319,33.813,33.813,0,0,1,10.6,3.992c6.649,3.6,12.343,8.445,17.812,13.589a6.189,6.189,0,0,0,1.006.642c-1.612.6-2.9.775-3.969-.338-.088-.092-.25-.109-.376-.165-1.276-.568-2.448-1.233-2.85-2.732a3.364,3.364,0,0,0-.525-1,1.354,1.354,0,0,0-2.2-.187,1.846,1.846,0,0,1-1.023.47c-1.425.11-1.868-1.083-2.471-2.01-.4-.61-.972-.934-1.564-.632-.434.22-.7.819-.966,1.29-.086.152.054.433.089.655a6.317,6.317,0,0,1-1.847-1.489c-1.011-1.223-1.952-2.5-2.927-3.758a1.316,1.316,0,0,0-1.914-.36,1.343,1.343,0,0,0-.2,2c.373.516.769,1.016,1.168,1.538l-1.085.687a4.759,4.759,0,0,1-2.1-2.351,41.673,41.673,0,0,0-3.107-4.978,1.225,1.225,0,0,0-1.915-.228,1.288,1.288,0,0,0-.142,1.936c.288.382.607.74.91,1.106-1.236,1.14-1.231,1.545-.054,2.955l-.612,1.624c-1.136-1.212-2.178-2.357-3.265-3.458a3.51,3.51,0,0,0-1.041-.578c-.332-.155-.687-.266-1.129-.433M124.222,77.55c-.251-.925-.452-1.8-.741-2.642a1.031,1.031,0,0,0-.65-.6c-.889-.149-1.174-.674-1.247-1.505a25.162,25.162,0,0,0-.482-3.578,15.023,15.023,0,0,0-2.8-5.91,10.141,10.141,0,0,1-.642,2.524,1.72,1.72,0,0,1-1.576.45c-.383-.117-.921-1.035-.789-1.3a2.723,2.723,0,0,0-.206-2.373c-.827-2.266-1.7-4.515-2.566-6.768-.206-.533-.465-1.045-.706-1.584-1.6,1.107-2.606.655-2.825-1.13a3.264,3.264,0,0,0-.3-.876c-.9-2.053-1.764-4.119-2.712-6.148-.744-1.591-1.558-3.149-2.407-4.686a6.963,6.963,0,0,0-1.117-1.222l-.254.157c.107,1.156.225,2.312.316,3.469.068.875-.367,1.266-1.239,1.239a1.445,1.445,0,0,1-1.411-1.152,41.688,41.688,0,0,1-1.6-5.232A14.363,14.363,0,0,0,95.3,32.515q-.97-1.277-1.973-2.531c-.334-.418-.7-.81-1.052-1.214a22.528,22.528,0,0,0,.225,2.954c.083.885-.389,1.347-1.272,1.376-1.1.037-1.265-.731-1.372-1.568a19.512,19.512,0,0,0-2.113-6.757c0,1.813.012,3.626,0,5.439-.009,1.144-.554,1.763-1.46,1.725-.857-.036-1.211-.511-1.156-1.7a28.932,28.932,0,0,0-.894-8.71A24.89,24.89,0,0,0,81,13.987a1.868,1.868,0,0,0,.023.6c.525,3.752,1.056,7.5,1.568,11.258.113.831-.187,1.442-1.1,1.557-.8.1-1.338-.428-1.469-1.362C79.5,22.36,79.047,18.666,78.42,15A53.125,53.125,0,0,0,77,9.8l-.277.06v1.122q0,7.761-.005,15.521a17.514,17.514,0,0,1-.1,1.755,1.129,1.129,0,0,1-1.183,1.071c-1.009.071-1.4-.448-1.362-1.8A52.568,52.568,0,0,0,71.394,9.6a6.007,6.007,0,0,0-.355-.716c-.115,6.392-.227,12.631-.339,18.867l5.578,2.585c.168-.294.344-.552.469-.831a1.307,1.307,0,1,1,2.321,1.16c-.516.867-.145,1.31.529,1.769,1.388.948,2.751,1.932,4.138,2.881a2.809,2.809,0,0,0,.842.345c1.249.339,2.5.661,3.937,1.038,1.7-1.117,2.4-1.007,2.878.648,1.432.048,1.548.133,1.766,1.57a1.474,1.474,0,0,0,1.016,1.331A2.6,2.6,0,0,1,95.4,41.765a7.8,7.8,0,0,1,.049,2.224c2-.465,2.52-.015,2.334,1.962-.023.24-.017.485-.063.722a1.69,1.69,0,0,0,1.218,2.12,1.259,1.259,0,0,1,1.765-.736c.888.376.87,1.147.719,1.938a4.634,4.634,0,0,0-.155.81,8.668,8.668,0,0,0,.13,1.09c1.979-1.08,2.5-.715,2.79,1.809.724-.271,1.568-.615,2.009.263a8.732,8.732,0,0,1,.475,2.2c1.595-.6,2.333-.25,2.687,1.43a15.468,15.468,0,0,1,.1,2.57c.016.388.064.775.1,1.176,1.941-.368,2.143-.221,2.677,1.549a1.2,1.2,0,0,0,.694.715,2.729,2.729,0,0,1,2.091,2.31c.1.465.2.932.293,1.4,1.733-.451,2.022-.236,2.159,1.532a2.454,2.454,0,0,0,1.485,2.3,2.249,2.249,0,0,1,1.4,1.753,11.484,11.484,0,0,0,2.889,5.243l.971-.595m4.47,71.791a10.3,10.3,0,0,0-.777.709c-1.333,1.466-1.224,2.749.382,3.926a10.777,10.777,0,0,0,8.39,1.664,1.1,1.1,0,0,0,1.037-1.3,1.318,1.318,0,0,0-1.229-1.308,4.431,4.431,0,0,0-1.027.086,8.408,8.408,0,0,1-5.579-1.349c1.347-.842,2.538-1.516,3.642-2.312.384-.277.847-.933.753-1.271a2.445,2.445,0,0,0-1.172-1.231c-.384-.214-.951-.075-1.424-.161-1.913-.351-3.821-.731-5.731-1.1l.062-.324c.17-.009.341-.022.511-.028.859-.037,1.528-.369,1.527-1.319a1.345,1.345,0,0,0-1.471-1.4c-.617-.028-1.237-.017-1.855-.013-2.029.014-4.067.161-6.085.018a13.3,13.3,0,0,1-7.964-3.1c-.856-.737-1.562-.757-2.169-.1s-.465,1.364.4,2.118a15.271,15.271,0,0,0,7.325,3.406,16.613,16.613,0,0,1,5.5,1.614,49.447,49.447,0,0,0,6.95,2.77M18.275,91.283c-2.41.256-4.192.433-5.97.649a1.122,1.122,0,0,0-.774.387,1.451,1.451,0,0,0,1.317,2.256,47.088,47.088,0,0,0,4.715-.516c3.286-.494,6.485-.381,9.427,1.349a7.753,7.753,0,0,1,4.186,6.276c.187,2.505-.908,3.527-3.408,3.227a25.4,25.4,0,0,1-9.59-2.7,8.9,8.9,0,0,0-2.591-.974c-1.2-.233-1.775.565-1.275,1.687a2.235,2.235,0,0,0,.927,1.02c1.776.912,3.592,1.743,5.391,2.614a7.732,7.732,0,0,0,4.748.56c1.694-.279,3.4-.523,5.078-.876,1.4-.294,2.776-.71,4.156-1.1.8-.225.985-.733.618-1.485-.935-1.919-1.793-3.878-2.792-5.763a10.031,10.031,0,0,0-6.729-5.249c-2.634-.629-5.331-.987-7.434-1.363M72.827,61.115c.121.308.234.619.365.923.958,2.215,1.931,4.423,2.877,6.642,3.6,8.437,6.675,17.008,7.248,26.291a9.282,9.282,0,0,1-3.654,8.529c-1.394,1.074-2.844,2.088-4.153,3.26-3.367,3.015-6.674,6.1-9.995,9.162-1.273,1.176-2.515,2.386-3.77,3.579a4.033,4.033,0,0,0,1.706-.727c3.3-2.379,6.63-4.729,9.874-7.187,1.642-1.245,3.16-2.664,4.673-4.069,1.286-1.193,2.428-2.543,3.736-3.708a9.105,9.105,0,0,0,3.342-6,18.791,18.791,0,0,0-.138-5.443,146.112,146.112,0,0,0-7.852-25.353c-.949-2.338-2.877-3.89-4.259-5.9M53.348,222.273a8.866,8.866,0,0,1,2.606-1.577A5.823,5.823,0,0,0,58.4,219.53c.84-.6,1.659-1.236,2.5-1.843,1.088-.788,1.864-.611,2.315.627a.877.877,0,0,0,1.3.569,5.015,5.015,0,0,0,1.215-.764c.857-.637,1.651-1.369,2.553-1.93,1.537-.955,2.176-.693,2.735.939a8.5,8.5,0,0,1,2.231-1.156c1.187-.221,1.325.867,1.455,1.8.585-.253,1.057-.462,1.533-.66,1.854-.774,2.209-.7,3.5.826.427.5.731.471,1.13-.054a10.854,10.854,0,0,0,1.819-5.144c-.151-.067-.215-.123-.273-.118-4.967.47-9.976.506-14.866,1.737-5.294,1.332-10.537,2.777-15.252,5.631a22.827,22.827,0,0,0-2.7,2.244l.132.234c1.222-.787,2.444-1.5,3.621-.193m29.907,17.8.391.02c.459.434,1.088.788,1.338,1.321.341.729-.271,1.26-.8,1.733-.438.389-.819.842-1.256,1.231-.5.446-.955.826-.588,1.639.12.266-.149.781-.358,1.107-.533.829-1.131,1.615-1.726,2.448.471.244.827.427,1,.516a35.163,35.163,0,0,0,11.112-19.126l-4.289-.91a13.268,13.268,0,0,1-.806,1.784,18.885,18.885,0,0,1-1.427,1.807,1.906,1.906,0,0,1,.136,2.5c-.431.737-1.015,1.383-1.509,2.087-.422.6-.812,1.227-1.215,1.842M54.41,72.6l-.243-.066c0-.275.016-.554,0-.828-.171-2.507-1.465-4.279-3.394-4.653-2.615-.506-6.2,1.949-6.861,4.548a13.539,13.539,0,0,0,.145,5.628,3.962,3.962,0,0,0,3.62,2.926,5.717,5.717,0,0,0,5.47-3.239A27.956,27.956,0,0,0,54.41,72.6m82.309,19.126c.177,1.939,1.449,2.789,2.669,3.679l-2.669-3.679M129.2,83.214l-1.8-3.741c-.072,1.576.026,1.784,1.8,3.741" transform="translate(0 0)" fill="#f2f2f2"/>
        <path id="Path_10" data-name="Path 10" d="M16.279,78.858c1.819,2.472.73,6.024-2.645,8.3.87-2.733,1.742-5.466,2.645-8.3" transform="translate(-1.861 -10.761)" fill="#f2f2f2"/>
        <path id="Path_11" data-name="Path 11" d="M52.376,84.7c.091-.449.254-1.288.432-2.127a2.9,2.9,0,0,1,2.522-2.258,2.571,2.571,0,0,1,2.7,1.268c1.369,1.74.965,3.52-.752,5.684-.469.59-.809,1.369-1.883,1.393-2.548.058-3.066-1.524-3.023-3.959" transform="translate(-7.147 -10.951)" fill="#f2f2f2"/>
      </g>
    </g>
  </g>
</svg>
