<svg id="Group_16" data-name="Group 16" xmlns="http://www.w3.org/2000/svg" xmlns:xlink="http://www.w3.org/1999/xlink" width="51.694" height="48" viewBox="0 0 51.694 48">
  <defs>
    <clipPath id="clip-path">
      <rect id="Rectangle_26" data-name="Rectangle 26" width="51.694" height="48" fill="#ced0d6"/>
    </clipPath>
  </defs>
  <g id="Group_15" data-name="Group 15" clip-path="url(#clip-path)">
    <path id="Path_56" data-name="Path 56" d="M50.181,28.517a5.14,5.14,0,0,1-1.366-2.436c-.221-1.328-.221-3.1-1.993-3.1A6.484,6.484,0,0,0,43.5,24.088s-.775.111-.775.775a1.694,1.694,0,0,0,.443,1.107l.221.443h.664s.664,1.107,1.107,1.107a4.46,4.46,0,0,0,1.328-.443s0,.886.443.886.443.664.443.664a8.142,8.142,0,0,0-.886,2.214,12.69,12.69,0,0,0-.2,1.7.343.343,0,0,1-.567.239c-.753-.653-2.148-1.716-3.222-1.716h-1.76a.018.018,0,0,1-.016-.009c-.069-.175-1.189-2.869-3.759-2.869a22.639,22.639,0,0,0-2.436.664h-.886a3.724,3.724,0,0,0-3.321-2.657V24.42l1.5.872a.806.806,0,0,0,1.213-.664L33,23.4a.273.273,0,0,1,.3-.281l1.253.115a.275.275,0,0,0,.314-.343,9.731,9.731,0,0,1-.328-1.572,4.315,4.315,0,0,1,.221-1.771,4.928,4.928,0,0,0,.534-.855,1.134,1.134,0,0,0,.13-.529v-.629a1.49,1.49,0,0,0-.719-1.28c.21.06.421.122.631.184.049.016.1.038.146.055h.106a1.469,1.469,0,0,0,.215-.146.292.292,0,0,0-.051-.489.814.814,0,0,1-.323-1.286.758.758,0,0,0-.022-.934,1.688,1.688,0,0,1-.082-1.968,4.851,4.851,0,0,1,1.439-1.61,4.008,4.008,0,0,0,1.523-2.081,1.513,1.513,0,0,0-.1-1.235,1.636,1.636,0,0,1-.115-1.406c.06-.175.106-.354.155-.534a1.81,1.81,0,0,0-.5-1.873A4.675,4.675,0,0,0,35.3,1.684c-1.087-.226-2.192-.379-3.279-.6A13.078,13.078,0,0,1,30.274.571,8.524,8.524,0,0,0,25.709.139a2.856,2.856,0,0,0-.786.3.813.813,0,0,0-.425.828c.106,1.286.188,2.577.365,3.855a18.6,18.6,0,0,0,.611,2.6,2.082,2.082,0,0,1-.113,1.517c-.093.2-.186.4-.3.591a7.421,7.421,0,0,0-1.224,3.049v.425c.12.56.235,1.12.356,1.68a.008.008,0,0,1,0,.007,4.888,4.888,0,0,0,.593,2.34,2.015,2.015,0,0,1,0,2.657,17.461,17.461,0,0,0-1.346,1.636,1.123,1.123,0,0,1-1.074.438,6.776,6.776,0,0,0-2.993.151,1.184,1.184,0,0,1-1.047-.193,5.662,5.662,0,0,0-3.281-1.147c-1.771,0-2.409.567-2.821,1.359a1.007,1.007,0,0,1-.965.553A9.123,9.123,0,0,0,5.53,24.2C2.652,26.192.216,28.184.216,28.184s-.664.664.332,1.882c0,0,2.436,3.321,3.543,4.871A6.67,6.67,0,0,1,5.862,38.48c.664,2.436,1.107,3.985,1.993,3.985s1.55,0,1.993-1.328a3.067,3.067,0,0,1,1.328-1.771s1.107-1.215,0-1.716-1.993.166-2.435-.277a12.43,12.43,0,0,1-1.007-1.3,2.177,2.177,0,0,1-.376-1.019l-.029-.3a2.745,2.745,0,0,1,.359-2.088l.764-1.322A2.613,2.613,0,0,0,8.8,29.546l-.062-.365s0-.664,1.328-.664a8.893,8.893,0,0,1,2.316.407A2.435,2.435,0,0,0,14,28.833a.538.538,0,0,1,.746.5c.009,1.258.179,3.578,1.3,4.058a1.787,1.787,0,0,1,1.116,2.139,18.821,18.821,0,0,0-.895,3.839,30.82,30.82,0,0,0-.221,3.764c0,.664,0,1.771.664,1.993a39.927,39.927,0,0,1,4.207,1.107c.571.286,1.605.941,2.265,1.368a2.491,2.491,0,0,0,1.359.4h3.148a.165.165,0,0,0,.109-.288l-.055-.047a1.8,1.8,0,0,1-.613-1.264,6.982,6.982,0,0,0-.456-2.165c-.554-1.439.111-3.875.664-5.092.739-1.625,1.439-2.325,2.546-2.325a4.279,4.279,0,0,0,2.436-.886,3.81,3.81,0,0,1,1.4-.2,1.324,1.324,0,0,1,1.167.613A4.689,4.689,0,0,0,39.073,38.7c3.1-.221,4.734-.775,5.646-.775a35.414,35.414,0,0,0,4.871,0c.682-.221,2.1-.554,2.1-2.325s.073-2.657-1.512-7.085M26.6,1.5a3.348,3.348,0,0,1,2.657.049,6.535,6.535,0,0,1,.941.487,2.656,2.656,0,0,0,2.216.3q.252-.073.512-.14A3.122,3.122,0,0,1,36.806,5.84a.587.587,0,0,1-.126.255,7.024,7.024,0,0,1-2.17,1.8,11.772,11.772,0,0,0-1.2.77,1.678,1.678,0,0,0-.644,1.01c-.046.213-.04.414.208.5s.385-.042.494-.239A2.328,2.328,0,0,1,36.2,8.787c.3.093.463-.04.5-.35a3.507,3.507,0,0,1,.168-.768.806.806,0,0,1,.292-.332c.235-.175.443-.086.463.2A.88.88,0,0,1,37.541,8a3.936,3.936,0,0,1-1.7,1.8,2.853,2.853,0,0,0-1.563,3.133c.011.1.024.188.042.317-.281-.166-.525-.325-.779-.46a6.855,6.855,0,0,0-3.266-.8,24.279,24.279,0,0,1-3.762-.173c-.3-.049-.591-.1-.89-.148a9.993,9.993,0,0,0,.616-1.355A11.339,11.339,0,0,0,26.4,4.988a4.362,4.362,0,0,0-.542-1.344A1.408,1.408,0,0,1,26.6,1.5m-1.53,11.276a5.386,5.386,0,0,1,.914-.077c1.955.155,3.917.277,5.861.525a6.4,6.4,0,0,1,2.69,1.131c.173.115.166.126.044.339a4.9,4.9,0,0,0-1.645-.633,8.62,8.62,0,0,1-1.074.011c.093.033.452.159.631.21.483.137.753.089,1.107.443a2.726,2.726,0,0,0,.58.509c-.007.029-.013.058-.022.086a3.36,3.36,0,0,1-.582-.122c-.715-.281-1.426-.576-2.132-.877a7.739,7.739,0,0,0-5.106-.463,11.071,11.071,0,0,1-1.266.173Z" transform="translate(0 0)" fill="#ced0d6"/>
    <path id="Path_57" data-name="Path 57" d="M241.14,29.422a2.586,2.586,0,0,1,.541-1.761.652.652,0,0,1,.264-.207.305.305,0,0,1,.42.379,1.589,1.589,0,0,0,.42,1.7.325.325,0,0,1,0,.476,1.945,1.945,0,0,0,.208,2.628,10.825,10.825,0,0,1,.94,1.1.284.284,0,0,1-.033.445.377.377,0,0,1-.509-.036,3.362,3.362,0,0,1-.379-.371,6.7,6.7,0,0,1-1.461-2.121,8.227,8.227,0,0,1-.41-2.234" transform="translate(-212.79 -24.205)" fill="#ced0d6"/>
    <path id="Path_58" data-name="Path 58" d="M268.172,21.548c.333.008.44.1.424.423-.044.864-.121,1.726-.145,2.59-.02.7.019,1.41.028,2.116a1.568,1.568,0,0,1-.025.5.469.469,0,0,1-.274.276.374.374,0,0,1-.32-.154,3.54,3.54,0,0,1-.38-.866c-.167-.7-.3-1.4-.422-2.105a1.617,1.617,0,0,1,.229-1.171,2.052,2.052,0,0,0,.451-1.245c-.019-.286.126-.368.435-.361" transform="translate(-235.638 -19.015)" fill="#ced0d6"/>
  </g>
</svg>
